# xmcd CD database file
#
# Track frame offsets:
#	150
#	21373
#	39155
#	57950
#	77368
#	95614
#	112550
#	132603
#	151348
#	182473
#	201105
#	217533
#	241353
#	262625
#	283480
#	307478
#	325115
#
# Disc length: 4694 seconds
#
# Revision: 11
# Processed by: cddbd v1.5.2PL0 Copyright (c) Steve Scherf et al.
# Submitted via: CDex 1.70beta2
#
DISCID=de125411
DTITLE=Various Artist - Smooth Jazz Cafe 5
DYEAR=2003
DGENRE=Jazz
TTITLE0=Sarah Vaughan - Whatever Lola Wants (Gotan Project remix)
TTITLE1=Peter Cincotti - Are You The One
TTITLE2=Maysa and Will Downing - Simple Life
TTITLE3=Glenn Lewis - Fall Again
TTITLE4=Mindi Abair - Lucy's
TTITLE5=Caddish - Dizzy
TTITLE6=Michael McDonald - I Want You
TTITLE7=Natalie Cole - Tell Me More About It
TTITLE8=15 Minut Projekt - Soca
TTITLE9=De Phazz - You Stayed
TTITLE10=Yuyu - Mon Petit Garcon
TTITLE11=Richard Elliot - Corner Pocket
TTITLE12=Matt Bianco - More Than I Can Bear
TTITLE13=Namaste - Havana Blues
TTITLE14=Jevetta Steele - Calling You
TTITLE15=Lizz Wright - Goodbye
TTITLE16=Gotan Project - Santa Maria (Del Buen Ayre)
EXTD=YEAR: 2003
EXTT0=
EXTT1=
EXTT2=
EXTT3=
EXTT4=
EXTT5=
EXTT6=
EXTT7=
EXTT8=
EXTT9=
EXTT10=
EXTT11=
EXTT12=
EXTT13=
EXTT14=
EXTT15=
EXTT16=
PLAYORDER=
